<?xml version="1.0" encoding="UTF-8" ?>
<!DOCTYPE svg PUBLIC "-//W3C//DTD SVG 1.1//EN" "http://www.w3.org/Graphics/SVG/1.1/DTD/svg11.dtd">
<svg width="1465pt" height="432pt" viewBox="0 0 1465 432" version="1.1" xmlns="http://www.w3.org/2000/svg">
<g id="#00a1e1ff">
<path fill="#00a1e1" opacity="1.00" d=" M 207.40 0.00 L 227.18 0.00 C 262.02 1.76 296.46 11.70 326.57 29.37 C 358.29 47.83 385.24 74.44 403.99 106.00 C 422.25 136.48 432.69 171.58 434.08 207.09 C 436.18 253.86 422.39 301.15 395.40 339.40 C 372.57 372.04 340.65 398.27 304.11 414.14 C 280.48 424.55 254.96 430.39 229.22 432.00 L 204.83 432.00 C 172.39 430.04 140.34 421.05 111.93 405.22 C 81.27 388.31 54.75 363.91 35.51 334.64 C 14.00 302.41 1.77 264.23 0.00 225.55 L 0.00 206.38 C 1.14 184.95 5.10 163.62 12.45 143.43 C 27.30 101.80 55.43 65.12 91.54 39.67 C 125.28 15.64 166.05 1.87 207.40 0.00 M 194.52 20.76 C 148.18 25.88 104.09 48.24 72.41 82.41 C 47.34 109.18 29.90 143.04 22.91 179.06 C 17.20 208.10 18.05 238.43 25.51 267.08 C 33.84 299.58 50.81 329.75 73.97 354.00 C 92.13 372.99 114.08 388.37 138.18 398.86 C 168.17 411.96 201.46 417.38 234.05 414.52 C 266.17 411.83 297.55 401.06 324.56 383.49 C 361.61 359.55 390.30 322.91 404.44 281.10 C 414.60 251.28 417.48 219.02 412.75 187.87 C 407.77 154.22 393.78 121.99 372.75 95.26 C 354.86 72.59 332.10 53.70 306.25 40.75 C 272.06 23.27 232.64 16.36 194.52 20.76 Z" />
<path fill="#00a1e1" opacity="1.00" d=" M 81.67 127.62 C 95.34 107.10 113.74 89.76 135.03 77.31 C 162.37 120.09 189.68 162.89 217.09 205.63 C 244.71 163.02 272.29 120.38 299.97 77.81 C 329.62 95.32 353.46 122.50 366.84 154.24 C 377.51 179.25 381.62 206.98 378.90 234.02 C 376.10 263.09 365.16 291.31 347.69 314.71 C 332.88 334.67 313.43 351.16 291.31 362.50 C 286.75 344.82 282.09 327.16 277.53 309.48 C 299.49 296.98 315.76 275.33 322.58 251.08 C 330.82 222.61 326.09 190.66 309.59 165.99 C 285.75 201.39 262.05 236.88 238.20 272.26 C 223.78 272.23 209.35 272.26 194.93 272.25 C 171.16 236.80 147.35 201.37 123.59 165.91 C 112.36 183.02 106.22 203.51 106.74 224.00 C 106.60 260.84 128.54 297.30 162.20 312.86 C 157.64 330.33 153.08 347.80 148.54 365.28 C 124.64 354.31 103.66 337.23 87.69 316.38 C 66.42 288.68 54.48 253.92 54.49 218.98 C 54.02 186.71 63.71 154.42 81.67 127.62 Z" />
<path fill="#00a1e1" opacity="1.00" d=" M 1068.92 124.51 C 1081.90 122.44 1095.30 122.97 1108.10 125.95 C 1120.43 128.87 1131.60 135.53 1140.81 144.13 C 1134.68 149.92 1129.04 156.24 1122.73 161.83 C 1112.93 151.91 1098.70 147.64 1085.01 147.73 C 1075.74 147.37 1065.80 149.34 1058.70 155.68 C 1048.53 164.45 1046.51 182.06 1055.93 192.06 C 1065.08 200.60 1078.15 201.38 1089.90 203.14 C 1104.21 205.17 1119.67 207.18 1131.07 216.94 C 1142.36 225.99 1147.34 240.90 1147.02 255.03 C 1147.52 269.00 1141.97 283.22 1131.49 292.60 C 1119.19 303.81 1102.27 308.47 1085.96 309.18 C 1071.22 309.61 1056.11 308.37 1042.34 302.77 C 1032.51 298.82 1023.78 292.50 1016.36 285.00 C 1022.73 279.00 1028.85 272.74 1035.07 266.57 C 1044.54 276.25 1057.38 282.37 1070.88 283.55 C 1083.75 284.62 1097.98 284.72 1109.07 277.10 C 1120.98 269.06 1122.60 250.78 1114.33 239.63 C 1108.52 232.14 1098.65 230.48 1089.82 229.42 C 1074.79 226.95 1058.87 226.47 1045.32 218.73 C 1034.99 213.23 1027.03 203.35 1024.41 191.88 C 1020.69 176.02 1022.72 158.06 1032.83 144.87 C 1041.40 133.44 1055.04 126.81 1068.92 124.51 Z" />
<path fill="#00a1e1" opacity="1.00" d=" M 1315.93 126.80 C 1326.30 122.06 1337.96 123.85 1349.00 123.50 C 1349.00 131.08 1349.00 138.67 1349.00 146.25 C 1343.88 146.38 1338.73 145.99 1333.64 146.43 C 1328.32 147.13 1324.18 151.65 1323.49 156.89 C 1322.50 164.46 1323.21 172.14 1323.01 179.76 C 1331.67 179.75 1340.33 179.75 1349.00 179.75 C 1349.00 186.50 1349.00 193.25 1349.00 200.00 C 1340.33 200.00 1331.66 200.00 1323.00 200.00 C 1322.99 235.92 1323.01 271.84 1322.99 307.76 C 1314.24 307.74 1305.50 307.76 1296.76 307.75 C 1296.74 271.84 1296.75 235.92 1296.75 200.01 C 1291.75 199.99 1286.75 200.01 1281.75 200.00 C 1281.75 193.25 1281.74 186.50 1281.75 179.75 C 1286.75 179.74 1291.74 179.75 1296.75 179.75 C 1297.16 169.77 1295.77 159.63 1297.79 149.78 C 1299.96 139.92 1306.53 130.86 1315.93 126.80 Z" />
<path fill="#00a1e1" opacity="1.00" d=" M 516.51 124.75 C 525.88 124.80 535.26 124.65 544.63 124.83 C 562.25 162.65 580.04 200.39 597.80 238.15 C 615.22 200.36 632.62 162.56 650.02 124.77 C 659.35 124.73 668.67 124.76 678.00 124.75 C 678.00 185.75 678.01 246.76 677.99 307.76 C 668.66 307.75 659.33 307.75 650.01 307.76 C 649.97 267.28 650.04 226.79 649.97 186.31 C 635.94 215.75 622.06 245.26 608.16 274.75 C 601.27 274.74 594.38 274.77 587.50 274.74 C 573.09 245.20 558.84 215.60 544.52 186.02 C 544.46 226.60 544.53 267.18 544.49 307.76 C 535.16 307.75 525.84 307.75 516.51 307.76 C 516.49 246.76 516.50 185.75 516.51 124.75 Z" />
<path fill="#00a1e1" opacity="1.00" d=" M 833.00 124.75 C 841.83 124.75 850.66 124.75 859.49 124.75 C 859.50 173.85 859.50 222.94 859.49 272.03 C 859.51 276.71 861.35 282.10 866.09 283.90 C 872.12 286.13 878.70 284.95 884.99 285.24 C 885.00 292.75 885.00 300.25 884.99 307.76 C 872.93 307.42 859.86 309.44 848.93 303.04 C 838.27 297.19 833.03 284.71 833.00 272.96 C 833.00 223.56 833.00 174.15 833.00 124.75 Z" />
<path fill="#00a1e1" opacity="1.00" d=" M 1379.76 140.25 C 1388.58 140.25 1397.41 140.25 1406.24 140.25 C 1406.26 153.41 1406.24 166.58 1406.25 179.75 C 1414.58 179.75 1422.91 179.74 1431.25 179.75 C 1431.25 186.50 1431.25 193.25 1431.25 200.00 C 1422.91 200.01 1414.58 199.99 1406.24 200.01 C 1406.25 223.70 1406.25 247.40 1406.25 271.10 C 1406.15 276.11 1408.43 281.57 1413.21 283.74 C 1418.91 286.12 1425.24 284.98 1431.24 285.25 C 1431.25 292.75 1431.25 300.25 1431.24 307.75 C 1421.57 307.43 1411.59 308.85 1402.23 305.72 C 1394.08 303.09 1387.13 296.99 1383.58 289.18 C 1380.84 283.54 1379.74 277.23 1379.74 271.00 C 1379.77 247.33 1379.74 223.67 1379.75 200.01 C 1374.83 199.99 1369.91 200.01 1365.00 200.00 C 1365.00 193.25 1364.99 186.50 1365.00 179.75 C 1369.91 179.75 1374.83 179.75 1379.75 179.75 C 1379.76 166.58 1379.74 153.41 1379.76 140.25 Z" />
<path fill="#00a1e1" opacity="1.00" d=" M 1446.46 152.54 C 1455.10 149.56 1465.34 156.77 1464.79 166.05 C 1465.33 174.31 1457.15 181.37 1449.08 180.18 C 1442.06 179.59 1436.05 173.16 1436.46 166.03 C 1436.17 159.91 1440.65 154.19 1446.46 152.54 M 1447.55 154.73 C 1443.38 155.85 1440.12 159.58 1439.41 163.82 C 1438.09 170.00 1442.44 176.90 1448.83 177.79 C 1455.70 179.20 1462.36 172.84 1462.04 166.00 C 1462.39 158.69 1454.62 152.33 1447.55 154.73 Z" />
<path fill="#00a1e1" opacity="1.00" d=" M 1445.00 157.76 C 1448.27 157.86 1451.65 157.36 1454.86 158.23 C 1458.99 160.04 1457.91 166.94 1453.30 167.35 C 1454.91 169.70 1456.45 172.10 1457.93 174.55 C 1452.12 176.22 1453.18 166.28 1447.75 167.17 C 1447.73 169.61 1447.84 172.06 1447.63 174.49 C 1446.97 174.50 1445.66 174.52 1445.00 174.54 C 1445.00 168.94 1444.99 163.35 1445.00 157.76 M 1447.75 159.95 C 1447.73 161.64 1447.73 163.33 1447.75 165.02 C 1449.96 164.72 1453.69 165.96 1454.52 163.03 C 1454.78 159.34 1450.10 160.14 1447.75 159.95 Z" />
<path fill="#00a1e1" opacity="1.00" d=" M 912.99 187.94 C 925.95 176.52 944.60 173.89 961.10 177.24 C 973.43 179.67 984.63 187.04 991.74 197.39 C 1000.06 209.48 1003.27 224.48 1003.00 238.99 C 1002.99 242.74 1003.00 246.49 1003.00 250.25 C 974.90 250.25 946.81 250.25 918.72 250.25 C 918.70 259.37 920.84 268.94 926.82 276.08 C 932.01 282.34 940.03 285.68 948.02 286.26 C 957.31 286.98 967.23 285.58 974.97 280.03 C 978.02 277.99 980.69 275.47 983.31 272.91 C 988.79 278.41 994.64 283.54 1000.19 288.98 C 994.90 293.90 989.49 298.81 983.07 302.22 C 970.29 309.23 955.11 310.17 940.89 308.65 C 926.54 307.10 912.31 300.16 904.13 287.96 C 893.85 272.85 891.92 253.76 892.74 235.96 C 893.63 218.36 899.23 199.77 912.99 187.94 M 927.30 206.31 C 920.89 213.07 918.71 222.68 918.71 231.75 C 938.14 231.76 957.58 231.74 977.01 231.75 C 976.79 222.77 974.51 213.35 968.37 206.52 C 957.94 195.11 937.87 195.10 927.30 206.31 Z" />
<path fill="#00a1e1" opacity="1.00" d=" M 1210.08 176.13 C 1221.03 175.34 1232.36 176.68 1242.21 181.77 C 1251.62 186.55 1259.43 194.45 1263.90 204.02 C 1269.32 215.16 1270.20 227.79 1270.50 239.98 C 1270.52 251.35 1270.12 262.93 1266.76 273.88 C 1264.40 281.58 1260.25 288.79 1254.47 294.43 C 1246.21 302.92 1234.68 307.74 1222.99 308.90 C 1209.55 310.33 1195.24 307.83 1184.11 299.82 C 1174.09 292.86 1167.14 281.99 1164.41 270.16 C 1161.29 256.68 1161.34 242.68 1162.24 228.95 C 1163.16 215.48 1167.16 201.61 1176.73 191.68 C 1185.34 182.47 1197.57 177.09 1210.08 176.13 M 1207.56 200.66 C 1200.11 202.82 1193.96 208.77 1191.44 216.08 C 1187.53 226.98 1188.26 238.75 1188.30 250.13 C 1188.79 260.24 1190.15 271.65 1198.06 278.88 C 1208.46 288.60 1226.61 287.74 1236.00 277.03 C 1242.33 269.64 1243.44 259.46 1243.95 250.12 C 1244.03 239.79 1244.49 229.27 1241.81 219.19 C 1240.33 214.01 1237.78 208.92 1233.52 205.47 C 1226.44 199.53 1216.29 198.13 1207.56 200.66 Z" />
<path fill="#00a1e1" opacity="1.00" d=" M 781.75 177.51 C 790.58 177.49 799.42 177.49 808.25 177.51 C 808.24 220.93 808.26 264.34 808.24 307.75 C 799.58 307.75 790.91 307.76 782.25 307.75 C 782.25 303.47 782.23 299.19 782.26 294.91 C 772.42 305.57 757.37 310.42 743.10 309.09 C 731.10 308.30 719.11 302.91 711.74 293.20 C 704.98 284.72 702.68 273.63 702.50 263.01 C 702.51 234.51 702.49 206.01 702.50 177.50 C 711.33 177.50 720.17 177.50 729.00 177.50 C 729.00 204.66 729.00 231.82 729.00 258.98 C 729.10 268.09 732.99 277.99 741.40 282.45 C 751.73 287.82 765.82 286.65 774.20 278.22 C 779.67 272.69 781.71 264.65 781.76 257.07 C 781.74 230.55 781.75 204.03 781.75 177.51 Z" />
</g>
</svg>
