<?xml version="1.0" encoding="UTF-8" standalone="no"?>
<svg
   xmlns:dc="http://purl.org/dc/elements/1.1/"
   xmlns:cc="http://creativecommons.org/ns#"
   xmlns:rdf="http://www.w3.org/1999/02/22-rdf-syntax-ns#"
   xmlns:svg="http://www.w3.org/2000/svg"
   xmlns="http://www.w3.org/2000/svg"
   xmlns:sodipodi="http://sodipodi.sourceforge.net/DTD/sodipodi-0.dtd"
   xmlns:inkscape="http://www.inkscape.org/namespaces/inkscape"
   width="586.31378"
   height="120.03438"
   viewBox="0 0 469.05103 96.027502"
   version="1.1"
   id="svg2"
   inkscape:version="0.91 r13725"
   sodipodi:docname="Logo_Plataforma5.svg"
   inkscape:export-filename="D:\MisDocs\Descargas\Logos-20161212T152828Z\Logos\Logo_Plataforma5_250.png"
   inkscape:export-xdpi="38.380001"
   inkscape:export-ydpi="38.380001">
  <metadata
     id="metadata34">
    <rdf:RDF>
      <cc:Work
         rdf:about="">
        <dc:format>image/svg+xml</dc:format>
        <dc:type
           rdf:resource="http://purl.org/dc/dcmitype/StillImage" />
        <dc:title></dc:title>
      </cc:Work>
    </rdf:RDF>
  </metadata>
  <defs
     id="defs32" />
  <sodipodi:namedview
     pagecolor="#ffffff"
     bordercolor="#666666"
     borderopacity="1"
     objecttolerance="10"
     gridtolerance="10"
     guidetolerance="10"
     inkscape:pageopacity="0"
     inkscape:pageshadow="2"
     inkscape:window-width="1366"
     inkscape:window-height="705"
     id="namedview30"
     showgrid="false"
     fit-margin-top="0"
     fit-margin-left="0"
     fit-margin-right="0"
     fit-margin-bottom="0"
     inkscape:zoom="0.5504"
     inkscape:cx="18.1572"
     inkscape:cy="60.634375"
     inkscape:window-x="-8"
     inkscape:window-y="-8"
     inkscape:window-maximized="1"
     inkscape:current-layer="svg2" />
  <g
     id="#a81440ff"
     transform="translate(-15.9975,-11.98)">
    <path
       d="m 394.41,12.48 c 1.44,-0.56 3.02,-0.45 4.54,-0.5 26.05,0.06 52.1,-0.03 78.14,0.05 4.18,-0.04 7.91,3.69 7.88,7.87 0.07,26.38 0,52.77 0.04,79.15 0.46,4.5 -3.26,8.94 -7.85,8.92 -26.75,0.05 -53.5,0.05 -80.25,0 -4.63,0.05 -8.36,-4.42 -7.91,-8.95 0,-26.01 0,-52.03 0,-78.04 -0.27,-3.62 1.9,-7.35 5.41,-8.5 m 32.65,24.88 c -0.77,7.58 -1.5,15.15 -2.21,22.73 2.24,0.58 4.48,1.19 6.74,1.75 1.64,-2.11 4.7,-3.29 7.11,-1.69 3.01,2.21 2.81,6.49 2.5,9.81 -0.12,2.67 -1.99,6.23 -5.18,5.37 -2.59,-0.69 -3.06,-3.62 -3.56,-5.84 -2.82,0.01 -5.63,0.03 -8.44,-0.05 -0.17,4.27 1.91,8.6 5.51,10.96 5.09,3.46 12.89,3.01 16.97,-1.84 3.02,-3.4 3.81,-8.17 3.54,-12.58 -0.22,-3.88 -1.23,-8.05 -4.19,-10.77 -3.34,-3.05 -8.59,-3.29 -12.45,-1.09 0.31,-3.1 0.56,-6.2 0.82,-9.3 4.82,-0.01 9.64,0.01 14.47,-0.01 0,-2.48 0,-4.96 -0.01,-7.43 -7.21,-0.02 -14.41,0.01 -21.62,-0.02 z"
       id="path5"
       inkscape:connector-curvature="0"
       style="fill:#a81440" />
  </g>
  <g
     id="#ffffffff"
     transform="translate(-15.9975,-11.98)"
     style="fill:#373d49;fill-opacity:1">
    <path
       d="m 16.01,37.37 c 6.61,0.32 13.36,-0.67 19.89,0.6 11.07,2.78 13.38,19.84 4.13,26.01 -4.41,2.99 -9.94,2.27 -14.96,2.33 -0.01,5.23 0,10.46 -0.01,15.69 -3.02,0 -6.04,0 -9.06,0 0,-14.88 -0.01,-29.76 0.01,-44.63 m 9.05,7.58 c 0,4.6 0,9.2 0.01,13.8 3.15,-0.31 6.85,0.89 9.58,-1.16 2.64,-2.8 2.41,-7.59 0.42,-10.69 -2.34,-3.13 -6.7,-1.62 -10.01,-1.95 z"
       id="path8"
       inkscape:connector-curvature="0"
       style="fill:#373d49;fill-opacity:1" />
    <path
       d="m 51.62,37.38 c 3.04,-0.01 6.09,-0.01 9.13,-0.01 0.01,12.38 0,24.75 0,37.12 5.25,0.02 10.5,0 15.75,0.01 0,2.5 0,5 0,7.5 -8.29,0 -16.58,0 -24.88,0 0,-14.87 0.01,-29.75 0,-44.62 z"
       id="path10"
       inkscape:connector-curvature="0"
       style="fill:#373d49;fill-opacity:1" />
    <path
       d="m 93.27,37.38 c 2.77,-0.01 5.55,-0.01 8.32,0 4.67,14.88 9.36,29.75 14.03,44.62 -3.24,0 -6.47,0 -9.7,0 -0.81,-3.06 -1.58,-6.12 -2.44,-9.16 -4.06,0.07 -8.11,0.02 -12.16,0.05 -0.79,3.04 -1.59,6.07 -2.38,9.11 -3.21,0 -6.41,0 -9.61,0 4.64,-14.88 9.3,-29.75 13.94,-44.62 m 4.15,12.26 c -1.39,5.21 -2.75,10.44 -4.11,15.67 2.73,0 5.47,0 8.21,-0.01 -1.36,-5.22 -2.74,-10.44 -4.1,-15.66 z"
       id="path12"
       inkscape:connector-curvature="0"
       style="fill:#373d49;fill-opacity:1" />
    <path
       d="m 114.01,37.37 c 10.33,0.01 20.65,0.01 30.98,0 0.01,2.52 0.01,5.05 0.01,7.57 -3.69,0 -7.37,0 -11.06,0 0,12.35 0,24.71 0,37.06 -3.02,0 -6.04,0 -9.06,0 -0.01,-12.35 0,-24.71 -0.01,-37.06 -3.62,0 -7.24,0 -10.87,0 -0.01,-2.52 0,-5.05 0.01,-7.57 z"
       id="path14"
       inkscape:connector-curvature="0"
       style="fill:#373d49;fill-opacity:1" />
    <path
       d="m 157.43,37.38 c 2.77,-0.01 5.54,-0.01 8.32,-0.01 4.69,14.87 9.35,29.76 14.04,44.63 -3.24,0 -6.47,0 -9.7,0 -0.8,-3.04 -1.6,-6.08 -2.39,-9.12 -4.03,-0.03 -8.07,0.07 -12.1,-0.07 -0.96,3.02 -1.66,6.12 -2.49,9.19 -3.21,0 -6.41,0 -9.61,0 4.64,-14.88 9.3,-29.74 13.93,-44.62 m 0.04,27.93 c 2.74,0 5.48,0 8.22,0 -1.37,-5.23 -2.73,-10.45 -4.11,-15.67 -1.38,5.22 -2.74,10.44 -4.11,15.67 z"
       id="path16"
       inkscape:connector-curvature="0"
       style="fill:#373d49;fill-opacity:1" />
    <path
       d="m 183.88,37.37 c 8.25,0 16.5,0 24.75,0 -0.01,2.52 0,5.04 0,7.56 -5.23,0.02 -10.46,0 -15.69,0.01 0,3.79 0,7.58 0.01,11.37 4.66,0 9.32,0 13.98,0 0.01,2.5 0.01,5 0.01,7.51 -4.67,0 -9.33,-0.01 -14,0 0,6.06 0,12.12 0,18.18 -3.02,0 -6.04,0 -9.06,0 0,-14.88 -0.01,-29.75 0,-44.63 z"
       id="path18"
       inkscape:connector-curvature="0"
       style="fill:#373d49;fill-opacity:1" />
    <path
       d="m 223.42,37.61 c 5.79,-1.84 12.96,-0.89 17.1,3.88 3.78,4.2 4.69,10.08 4.67,15.53 -0.02,6.59 0.59,13.88 -3.43,19.56 -4.39,6.53 -13.93,7.6 -20.61,4.24 -5.68,-3 -8.1,-9.72 -8.17,-15.82 0.05,-6.64 -0.8,-13.69 2.18,-19.88 1.65,-3.44 4.59,-6.32 8.26,-7.51 m 2.01,7.78 c -3.41,2.73 -3.29,7.63 -3.43,11.59 0.15,4.87 -0.59,10.03 1.38,14.63 1.8,4.34 8.84,4.7 11.06,0.56 1.95,-3.71 1.56,-8.06 1.63,-12.11 -0.06,-4.17 0.3,-8.62 -1.56,-12.49 -1.53,-3.34 -6.19,-4.16 -9.08,-2.18 z"
       id="path20"
       inkscape:connector-curvature="0"
       style="fill:#373d49;fill-opacity:1" />
    <path
       d="m 251.62,37.38 c 6.71,0.33 13.58,-0.81 20.17,0.78 10.74,3.1 11.17,20.04 1.98,25.25 2.62,6.19 5.35,12.35 7.89,18.58 -3.3,0.02 -6.59,0.01 -9.89,0.01 -2.24,-5.41 -4.45,-10.84 -6.69,-16.25 -1.47,0.01 -2.93,0.01 -4.39,0 0,5.42 0,10.83 0,16.24 -3.02,0.01 -6.04,0.01 -9.07,0.01 0,-14.88 0.01,-29.75 0,-44.62 m 9.07,7.57 c 0,4.41 0,8.82 0,13.23 2.93,-0.22 6.61,0.83 8.89,-1.58 2.02,-2.74 1.99,-6.77 0.42,-9.7 -2.08,-3 -6.25,-1.67 -9.31,-1.95 z"
       id="path22"
       inkscape:connector-curvature="0"
       style="fill:#373d49;fill-opacity:1" />
    <path
       d="m 286.31,37.37 c 3.94,0 7.88,0 11.82,0.01 2.8,10.7 5.58,21.4 8.39,32.09 2.76,-10.68 5.6,-21.35 8.3,-32.05 3.95,-0.09 7.91,-0.03 11.87,-0.05 0.01,14.88 -0.01,29.75 0,44.62 -3.02,0.01 -6.04,0.01 -9.07,0.01 -0.19,-10.12 0.31,-20.22 0.79,-30.32 -2.94,10.1 -5.9,20.19 -8.8,30.3 -2.08,0.02 -4.17,0.02 -6.25,0 -2.91,-10.11 -5.85,-20.2 -8.8,-30.3 0.47,10.1 1.01,20.2 0.82,30.32 -3.03,0 -6.05,0 -9.08,-0.01 0.02,-14.87 0,-29.74 0.01,-44.62 z"
       id="path24"
       inkscape:connector-curvature="0"
       style="fill:#373d49;fill-opacity:1" />
    <path
       d="m 345.44,37.38 c 2.76,-0.01 5.54,-0.01 8.31,-0.01 4.69,14.88 9.36,29.75 14.03,44.63 -3.23,0 -6.46,0 -9.69,0 -0.8,-3.04 -1.6,-6.08 -2.39,-9.12 -4.07,-0.01 -8.13,0 -12.2,0 -0.8,3.03 -1.6,6.08 -2.39,9.12 -3.21,0 -6.41,0 -9.61,0 4.64,-14.88 9.29,-29.75 13.94,-44.62 m 4.13,12.26 c -1.36,5.22 -2.74,10.44 -4.1,15.67 2.74,0 5.48,0 8.22,0 -1.38,-5.23 -2.72,-10.46 -4.12,-15.67 z"
       id="path26"
       inkscape:connector-curvature="0"
       style="fill:#373d49;fill-opacity:1" />
    <path
       d="m 427.06,37.36 c 7.21,0.03 14.41,0 21.62,0.02 0.01,2.47 0.01,4.95 0.01,7.43 -4.83,0.02 -9.65,0 -14.47,0.01 -0.26,3.1 -0.51,6.2 -0.82,9.3 3.86,-2.2 9.11,-1.96 12.45,1.09 2.96,2.72 3.97,6.89 4.19,10.77 0.27,4.41 -0.52,9.18 -3.54,12.58 -4.08,4.85 -11.88,5.3 -16.97,1.84 -3.6,-2.36 -5.68,-6.69 -5.51,-10.96 2.81,0.08 5.62,0.06 8.44,0.05 0.5,2.22 0.97,5.15 3.56,5.84 3.19,0.86 5.06,-2.7 5.18,-5.37 0.31,-3.32 0.51,-7.6 -2.5,-9.81 -2.41,-1.6 -5.47,-0.42 -7.11,1.69 -2.26,-0.56 -4.5,-1.17 -6.74,-1.75 0.71,-7.58 1.44,-15.15 2.21,-22.73 z"
       id="path28"
       inkscape:connector-curvature="0"
       style="fill:#ffffff;fill-opacity:1" />
  </g>
</svg>
